<svg xmlns="http://www.w3.org/2000/svg" width="925" height="218"><path fill="#2A51EA" d="M107.938 27.75c4.754 4.452 8.231 10.743 8.624 17.313-1.212 8.485-4.456 13.736-11.101 19.156C96.07 71.015 82.728 75.622 71 75l1 2a103 103 0 0 0 7.55 1.402l2.332.374q3.713.59 7.43 1.162 4.84.752 9.676 1.527l2.36.378c6.31 1.04 12.489 2.439 18.652 4.157l.921-2.373c3.502-8.527 10.534-15.332 18.954-18.877 7.996-3.09 15.848-4.117 24.375-4.062l2.784.014c11.077.19 20.654 2.09 29.966 8.298l2.625 1.688C203.797 74.75 207.391 79.782 210 85l2.098-.352q8.633-1.445 17.277-2.832 3.813-.625 7.625-1.254l3.926-.619 3.762-.627 3.386-.548c2.983-.783 4.635-1.745 6.926-3.768l-3.227-.629c-12.377-2.563-25.473-5.836-33.507-16.406C214.483 52.093 212.975 46.892 214 40c2.325-8.215 8.818-13.546 15.95-17.73 20.47-10.198 45.604-10.544 67.05-3.395 9.315 3.493 18.354 8.013 23.5 16.938 2.314 5.34 2.456 10.732.91 16.32-3.696 8.687-11.774 14.233-20.226 17.77C294.242 72.295 286.373 75 279 75l.324 2.887.363 3.8.387 3.762c-.083 4-.72 5.387-3.074 8.551-2.154 1.207-2.154 1.207-4.719 2.035l-2.969.973a996 996 0 0 1-20.842 5.99C233.244 107.21 219 112.18 209 125l10 5 2.188-2.25c10.694-10.457 22.376-13.125 36.935-13.05 10.866.25 20.438 2.067 28.877 9.3 2.994 3.224 5.826 6.592 6.152 11.113-.559 5.724-1.739 10.002-6.152 13.887-6.39 3.867-12.674 7.189-20.25 7.063L263 156l.25 2.25c-.25 2.75-.25 2.75-1.937 5-2.635 1.994-4.001 2.75-7.313 2.75-2.75-1.562-2.75-1.562-5-4-.812-3.25-.812-3.25-1-6l-2.812.25c-6.368 0-12.787-2.554-17.933-6.189-4.97-3.148-10.403-4.436-16.03-5.946-2.03-.55-4.045-1.14-6.063-1.73-7.649-2.137-12.923-2.935-20.162.615a536 536 0 0 1-8.031 2.254c-2.16.564-2.16.564-2.969 2.746l2.688 1.25c6.8 3.593 10.247 7.76 13.312 14.75 1.963 8.173.995 14.647-3 22-4.09 5.573-9.323 9.2-16 11-7.523 1.068-14.5.04-21-4-5.393-4.842-9.58-9.682-10.3-17.086-.036-10.01 1.883-15.698 8.484-23.215 2.876-2.69 4.86-3.699 8.816-3.699-4.827-5.544-11.8-8.128-19-9-4.867.262-9.416 1.819-14.005 3.364-1.983.632-3.959 1.134-5.987 1.6-7.103 1.666-12.77 3.714-18.871 7.708C93.98 155.877 88.939 156.242 83 156l-.312 2.813c-.707 3.276-.97 4.342-3.688 6.187-3.164 1.166-4.561 1.16-7.75 0-2.25-2-2.25-2-3.062-5.687L68 156l-2.875.188C56.461 156.135 48.493 152.633 42 147c-3.281-3.768-4.757-7.898-4.434-12.957 1.303-6.136 4.842-9.994 9.996-13.356 13.684-7.374 30.685-7.723 45.532-3.73 7.529 2.702 13.258 6.536 17.906 13.043l9-4c-8.26-14.453-22.105-18.724-37.423-22.943l-3.807-1.037-1.953-.533q-4.907-1.34-9.827-2.633l-3.685-.987-3.313-.871c-3.694-1.23-6.915-2.597-9.328-5.73-.961-3.28-.603-6.127-.289-9.516l.336-3.828L51 75l-3.078-.48c-13.478-2.23-26.24-5.676-35.55-16.395C8.831 53.123 7.678 48.098 8 42c1.335-7.059 5.474-12.26 11.05-16.594 24.915-16.414 65.096-15.69 88.888 2.344M25 42c-.667 2.914-.667 2.914 0 6 5.148 6.757 12.93 9.438 21 11 3.334.169 3.334.169 6 0l.262-2.266c1.138-7.98 1.138-7.98 3.925-11.484C59.97 43.569 62.052 43.851 66 45c2.375 1.375 2.375 1.375 4 4 .622 3.661.872 7.291 1 11 10.28-1.686 19.069-3.724 27.688-9.937 1.566-2.069 1.566-2.069 1.374-5-2.012-5.803-5.866-8.15-11.187-10.75C70.706 26.66 39.174 25.748 25 42m207-2c-2.234 2.79-2.234 2.79-2.125 5.813 1.71 4.843 4.68 6.793 9.125 9.187 6.546 2.609 12.916 4.659 20 4l.043-2.012c.243-4.496.534-7.334 3.02-11.175 3.493-2.156 5.137-2.113 9.07-1.5 2.377.875 3.366 1.631 4.867 3.687.73 2.918.73 2.918 1.188 6.188l.48 3.292L278 60c9.958-1.765 18.348-4.057 26.688-9.875 1.611-2.205 1.611-2.205 1.375-5.625-1.288-4.243-2.326-5.194-6.063-7.5l-1.617-1.023C280.66 25.86 247.583 25.747 232 40M52 134c.318 2.946.559 4.559 2.688 6.688 4.758 2.7 8.86 3.572 14.312 3.312l2-6 7-1c2.875 4.75 2.875 4.75 4 7 6.257-.54 11.363-1.363 16-6 .223-2.48.223-2.48-1-5-11.819-8.801-34.01-8.999-45 1m181 0c.318 2.946.559 4.559 2.688 6.688 4.758 2.7 8.86 3.572 14.312 3.312l-2-1v-2h2l1.25-2c1.75-2 1.75-2 4.75-2.5 3 .5 3 .5 4.813 2.313C262 141 262 141 263 144c5.983-.266 10.366-.829 15-5 .962-2.628.962-2.628 1-5-12.09-10.668-33.527-9.364-46 0m-76 31c-2.328 3.215-2.397 6.108-2 10 1.261 2.774 2.31 4.483 4.75 6.313 3.271.999 5.847 1.045 9.25.687 3.699-2.055 4.8-3.52 6.438-7.437.602-3.813.48-5.276-1.438-8.563-2.26-2.738-3.862-3.48-7.375-3.875-4.1-.327-6.437.073-9.625 2.875"/><path fill="#2F3032" d="M372 81h20c9.478 24.51 18.955 49.023 28.145 73.644a4339 4339 0 0 0 2.082 5.566 2991 2991 0 0 1 2.878 7.724l.853 2.272A69 69 0 0 1 429 181h-20l-8-24h-38l-8 24h-19c1.865-7.091 3.938-13.993 6.45-20.879l1-2.772q1.612-4.459 3.238-8.911l1.118-3.084C355.624 123.808 363.762 102.388 372 81m9 19a6940 6940 0 0 0-5.072 15.051q-.86 2.559-1.726 5.116-1.244 3.685-2.48 7.372l-.78 2.292-.727 2.183c-.21.626-.422 1.253-.64 1.898-.73 2.648-1.123 5.379-1.575 8.088h28c-1.31-5.899-2.668-11.426-4.602-17.098-.24-.72-.482-1.44-.73-2.18-.76-2.263-1.527-4.524-2.293-6.784l-1.562-4.647A5116 5116 0 0 0 383 100z"/><path fill="#2E2F31" d="M888 78h18v103h-18l-1-4-1.574 1.059c-7.087 4.623-7.087 4.623-11.426 4.941l-1.953.152c-8.419.368-15.389-1.388-21.922-6.84-6.905-6.673-9.76-14.676-10.284-24.195-.037-3.062-.016-6.117.034-9.18l.027-3.2q.036-3.87.098-7.737h2l.34-2.223c1.68-7.07 6.72-12.52 12.578-16.562 10.6-6.185 20.506-6.109 32.082-3.215zm-25.75 50.875c-3.831 5.321-4.572 9.582-4.5 16.063l-.023 2.091c.026 6.939 1.48 11.904 6.273 16.971 4.19 3.088 8.014 4.38 13.242 3.715 5.973-1.157 5.973-1.157 10.758-4.715.355-2.995.466-5.616.39-8.605-.005-.84-.01-1.679-.017-2.544-.022-2.68-.072-5.359-.123-8.038q-.03-2.727-.055-5.452c-.044-4.454-.113-8.907-.195-13.361-9.177-3.884-18.663-3.534-25.75 3.875"/><path fill="#2F3032" d="M749.996 115.215c6.706 5.974 9.348 13.136 11.004 21.785v15h-49c3.233 8.872 3.233 8.872 10.25 14.25 11.327 3.09 22.616.868 33.75-2.25 1.757 4.504 2.193 8.176 2 13l-2.937.875c-3.17.767-3.17.767-4.063 3.125-13.191 3.01-28.173 3.847-40.613-2.29-9.041-5.682-14.392-13.23-17.137-23.523-.973-12.404-.565-25.187 7.75-35.187 13.094-13.953 33.347-16.18 48.996-4.785m-35.308 11.972c-2.312 3.423-2.312 3.423-2.688 10.813h31c-.375-6.628-.375-6.628-3-12-8.173-6.13-17.738-5.978-25.312 1.188M824.25 116.125c5.623 5.208 8.268 11.466 9.75 18.875v17l-41 1v1h-7c.71 5.322.71 5.322 3.75 9.313L792 164l2.75 1.563c10.697 4.73 23.405 1.536 34.25-1.563 2.248 4.497 2.167 8.079 2 13-12.792 6.396-28.258 8.192-42 4-10.247-4.105-14.901-9.233-19.766-19.062-3.954-9.412-3.745-23.119-.285-32.727 4.271-8.987 9.719-15.54 19.051-19.211 12.762-4.08 25.757-2.16 36.25 6.125M791 125v2l-3 1c-2.226 3.339-2.297 5.782-3 10h32c-1.43-8.304-1.43-8.304-6-14-6.793-3.963-13.448-2.276-20 1M487.313 116.375c4.163 3.874 7.722 7.835 8.687 13.625l1 4v18h-48c2.884 9.327 2.884 9.327 9.898 14.047 8.115 3.68 16.918 1.32 25.247-.356 3.088-.553 5.74-.844 8.855-.691.417 1.933.808 3.872 1.188 5.813l.667 3.269C495 177 495 177 493.77 178.852c-2.36 1.531-4.643 1.655-7.403 1.898-2.626.277-5.155.785-7.742 1.313-12.431 2.28-24.921 1.108-35.625-6.063-8.145-7.105-12.453-16.157-13.203-26.91-.183-12.315 1.614-22.79 10.203-32.09 13.793-11.562 33.396-12.21 47.313-.625m-35.625 10.813c-2.263 3.46-2.263 3.46-3.688 10.812h32c-1.43-8.304-1.43-8.304-6-14-7.358-4.292-16.304-2.497-22.312 3.188"/><path fill="#2E2F31" d="M610.25 116c6.839 6.409 10.433 15.378 10.953 24.602.244 12.54-1.092 23.814-10.023 33.34-8.322 7.816-17.706 9.49-28.895 9.324-11.019-.891-19.072-4.886-26.285-13.266-6.09-8.546-6.835-19.843-6-30 1.815-10.796 5.428-18.953 14-26 13.7-9.171 33.363-7.97 46.25 2M573 127c-4.002 5.756-4.625 11.135-4.5 18-.015.85-.03 1.702-.047 2.578.036 5.925 1.188 10.487 4.547 15.422 5.321 4.941 8.906 5.345 16.012 5.285 4.888-.466 7.388-2.685 10.738-6.035 4.709-8.476 4.227-19.167 1.875-28.312-1.272-3.942-2.692-6.268-6.062-8.688-7.215-3.52-16.282-3.844-22.563 1.75"/><path fill="#2F3032" d="M634 81h61v16l-43 1v24c2.937 1.469 5.936 1.218 9.16 1.281l2.137.056c3.022.079 6.044.147 9.066.215q3.304.08 6.61.167l2.086.04c4.828.128 4.828.128 5.941 1.241.144 4.668.042 9.329 0 14l-27 1v1h-8v40h-18z"/><path fill="#2A51EA" d="M277 75h2c.25 2.227.474 4.457.688 6.688.19 1.862.19 1.862.386 3.761-.083 4-.72 5.387-3.074 8.551-2.154 1.207-2.154 1.207-4.719 2.035l-2.969.973a996 996 0 0 1-20.842 5.99C233.244 107.21 219 112.18 209 125l10 5 2.188-2.25c10.694-10.457 22.376-13.125 36.935-13.05 10.866.25 20.438 2.067 28.877 9.3 2.994 3.224 5.826 6.592 6.152 11.113-.559 5.724-1.739 10.002-6.152 13.887-6.39 3.867-12.674 7.189-20.25 7.063L263 156l.25 2.25c-.25 2.75-.25 2.75-1.937 5-2.635 1.994-4.001 2.75-7.313 2.75-2.75-1.562-2.75-1.562-5-4-.812-3.25-.812-3.25-1-6l-2.812.25c-6.368 0-12.787-2.554-17.933-6.189-4.97-3.148-10.403-4.436-16.03-5.946-2.03-.55-4.045-1.14-6.063-1.73-7.649-2.137-12.923-2.935-20.162.615a536 536 0 0 1-8.031 2.254c-2.16.564-2.16.564-2.969 2.746l2.688 1.25c6.8 3.593 10.247 7.76 13.312 14.75 1.963 8.173.995 14.647-3 22-4.09 5.573-9.323 9.2-16 11-7.523 1.068-14.5.04-21-4-5.393-4.842-9.58-9.682-10.3-17.086-.036-10.01 1.883-15.698 8.484-23.215 2.876-2.69 4.86-3.699 8.816-3.699-4.827-5.544-11.8-8.128-19-9-4.853.261-9.4 1.807-13.979 3.346-3.38 1.093-6.828 1.913-10.271 2.779-3.819.992-7.299 1.944-10.75 3.875 1.477-3.724 1.477-3.724 3.769-4.933l2.153-.614 2.44-.72L114 143l2.717-.81a551 551 0 0 1 8.533-2.44l2.93-.852 2.836-.789 2.54-.72c5.17-.823 10.182 1.353 15.069 2.923l2.023.608c2.989.965 5.116 1.849 7.375 4.06C159 147 159 147 158 150c-2.18 1.465-2.18 1.465-4.875 2.938-5.487 3-8.246 6.046-10.125 12.062-.707 6.883-1.125 14.198 2.52 20.316 3.696 4.204 9.54 8.427 15.203 8.922 7.155.16 13.317.076 19.277-4.238 4.812-4.967 7.985-10.219 8.375-17.187-.186-6.198-1.756-12.21-6.246-16.672A65 65 0 0 0 176 152l-3-1.875-2-1.125c1.42-3.43 2.87-5.018 6-7 2.329-.788 4.687-1.49 7.063-2.125l3.722-1.008L191 138l3-1c2.775.569 5.458 1.2 8.188 1.938l2.271.591q2.773.726 5.541 1.471l.813-2.812C212 135 212 135 215 132l-8-5c.424-4.8 2.575-7.786 6-11 11.687-8.971 25.034-13.101 39.059-16.957l3.797-1.052q3.793-1.042 7.596-2.049l3.56-.977 3.202-.856c3.123-1.243 4.712-2.478 6.786-5.109.483-3.504.483-3.504.25-7.25l-.11-3.828zm-44 59c.318 2.946.559 4.559 2.688 6.688 4.758 2.7 8.86 3.572 14.312 3.312l-2-1v-2h2l1.25-2c1.75-2 1.75-2 4.75-2.5 3 .5 3 .5 4.813 2.313C262 141 262 141 263 144c5.983-.266 10.366-.829 15-5 .962-2.628.962-2.628 1-5-12.09-10.668-33.527-9.364-46 0"/><path fill="#2B51E8" d="M107.938 27.75c4.754 4.452 8.231 10.743 8.624 17.313-1.212 8.485-4.456 13.736-11.101 19.156C96.07 71.015 82.728 75.622 71 75l1 2a103 103 0 0 0 7.55 1.402l2.332.374q3.713.59 7.43 1.162 4.84.752 9.676 1.527l2.36.378c6.31 1.04 12.489 2.439 18.652 4.157l.921-2.373c3.502-8.527 10.534-15.332 18.954-18.877 7.996-3.09 15.848-4.117 24.375-4.062l2.784.014c11.077.19 20.654 2.09 29.966 8.298l2.625 1.688C203.797 74.75 207.391 79.782 210 85a1115 1115 0 0 0 17.707-3.023l3.07-.548q3.063-.547 6.124-1.108c4.755-.846 9.245-1.568 14.099-1.321l-1 2h-10v2c-3.477.68-6.957 1.342-10.437 2l-2.952.578C213.93 87.953 213.93 87.953 209 87c-2.129-1.941-2.129-1.941-3.562-4.562-6.61-10.72-15.105-15.104-27.154-18.034-4.367-.772-8.737-.69-13.159-.654l-2.816-.023c-8.198.022-16.266.766-23.621 4.648-.78.4-1.56.8-2.364 1.21-5.336 3.247-8.523 6.789-11.637 12.165l-1.087 1.824A537 537 0 0 0 121 88c-7.668-.732-15.177-2.044-22.75-3.437q-3.585-.657-7.172-1.31l-3.533-.643c-4.654-.8-9.326-1.449-14.007-2.067C71 80 71 80 69 78c.375-2.625.375-2.625 1-5l3.043-.48c12.512-2.088 28.766-4.852 36.617-15.844 2.959-5.381 4.224-9.588 3.34-15.676-3.013-9.358-10.465-14.342-18.895-18.676-19.585-8.351-46.815-6.342-66.265 1.262C24.857 25.07 22.518 26.829 20 29l1.938.813C24 31 24 31 25 34l2.875-.5C31 33 31 33 33 33c2.682-.956 5.328-1.992 7.98-3.027 15.256-4.915 36.205-3.243 50.645 3.34 5.247 2.915 8.35 5.953 10.5 11.687-.142 3.406-1.007 5.08-3.348 7.55C90.556 59.256 80.383 61.557 70 61c-2.08-2.08-1.318-6.516-1.426-9.336-.337-2.779-.337-2.779-2.476-4.473C64.04 46.023 62.32 45.414 60 45v-2c3.674.256 5.755.832 8.813 2.938C71.82 50.148 71.892 53.929 72 59c14.97-2.416 14.97-2.416 27-11-.074-3.489-.45-5.361-2.742-8.027-11.23-9.811-27.676-9.807-41.75-9.173C44.077 31.63 33.572 34.428 26 42c-.588 3.783-.38 5.45 1.813 8.625C34.843 55.865 43.477 57.595 52 59v1c-10.435.518-10.435.518-15.437-1.562C32.929 56.972 32.43 56.824 29 58l-2 1-1 3-3-1 2-5h-3v7c8.765 4.718 17.08 7.81 27 9q2.006.477 4 1l-.176 3.324q-.07 2.182-.136 4.364l-.127 2.185c-.089 3.865.153 5.694 2.334 8.998 4.207 2.884 8.142 3.595 13.105 4.504 7.932 1.63 15.627 3.568 23.313 6.125l2.544.826C105.19 107.178 116.4 113.67 123 124v4l-13 5c-3-3-3-3-5.062-5.937-3.423-4.142-7.936-5.497-12.938-7.063l-2.05-.652c-7.75-2.062-15.98-2-23.95-2.348v-2c14.436-.467 28.045-.266 40 9 1.922 1.917 3.416 3.782 5 6l9-4c-8.26-14.453-22.105-18.724-37.423-22.943l-3.807-1.037-1.953-.533q-4.907-1.34-9.827-2.633l-3.685-.987-3.313-.871c-3.694-1.23-6.915-2.597-9.328-5.73-.961-3.28-.603-6.127-.289-9.516l.336-3.828L51 75l-3.078-.48c-13.478-2.23-26.24-5.676-35.55-16.395C8.831 53.123 7.678 48.098 8 42c1.335-7.059 5.474-12.26 11.05-16.594 24.915-16.414 65.096-15.69 88.888 2.344"/><path fill="#2A51EA" d="M316.375 30.16c4.644 5.259 6.35 10.38 5.996 17.395-1.119 7.371-5.216 11.964-10.84 16.629-6.692 4.802-14.082 7.138-21.969 9.191l-2.08.546c-3.447.832-6.118 1.404-9.482.079v-1l1.753-.364C295.66 69.366 295.66 69.366 310 62l3-2.062c3.918-3.796 5.76-7.765 6.168-13.157l.02-2.281.042-2.281c-.256-2.468-1.002-4.083-2.23-6.219-1.931-.043-1.931-.043-4 1-1.699 3.325-1.699 3.325-3 7-2.55 6.009-6.379 10.332-12.344 13.05-3.608 1.29-7.26 2.304-10.969 3.263l-2.14.557c-3.36.814-5.204 1.244-8.547.13-.125-3.375-.125-3.375 0-7l2-2 1 7c14.204-2.9 14.204-2.9 26-11 .31-3.426.31-3.426-1-7-10.777-10.028-27.86-10.577-41.648-10.312-10.512.45-22.724 2.45-30.352 10.312-1.648 2.958-1.648 2.958-1 6 5.008 6.785 13.014 9.454 21 11 3.334.169 3.334.169 6 0l.078-1.793c.375-5.22.932-8.459 4.922-12.207h2v2l-1.457 1.238c-2.217 2.532-2.052 4.636-2.23 7.95l-.2 3.292L261 61c-7.478 2.493-16.444-1.537-23.32-4.582-4.78-2.53-7.82-5.172-9.805-10.355.216-5.296 3.231-8.722 6.125-13.063l-6-2 1-4-6 2v2h-2a175 175 0 0 0-2 4l-1.125 2.188c-1.64 5.27-1.636 10.537.438 15.687 1.42 2.63 2.523 4.167 4.687 6.125v2h2v2l2.633.848c3.147 1.077 6.173 2.31 9.242 3.59C244.418 70.385 252.038 71.743 260 73l.375 2.438L261 78l2 1c-4.316.762-7.744 1.16-12 0l4-4-3.227-.629c-12.377-2.563-25.473-5.836-33.507-16.406C214.483 52.093 212.975 46.892 214 40c2.325-8.215 8.818-13.546 15.95-17.73 8.075-4.024 16.166-5.924 25.05-7.27l2.574-.434c19.7-2.709 44.07 1.569 58.801 15.594"/><path fill="#2F2F32" d="M549 108v16l-6.5.75c-6.81.965-12.492 2.242-17.5 7.25-.285 1.992-.285 1.992-.211 4.294l.01 2.691.04 2.913.017 2.99c.017 3.162.049 6.325.082 9.487q.042 4.732.07 9.466.019 2.947.054 5.896l.02 2.71.025 2.377C525 177 525 177 524 181h-18v-70h17l1 6 2.5-2.312c6.488-5.402 14.236-6.688 22.5-6.688"/><path fill="#2E2F31" d="M487.313 116.375c4.163 3.874 7.722 7.835 8.687 13.625l1 4v18h-48c2.884 9.327 2.884 9.327 9.898 14.047 8.115 3.68 16.918 1.32 25.247-.356 3.088-.553 5.74-.844 8.855-.691.417 1.933.808 3.872 1.188 5.813l.667 3.269C495 177 495 177 493.77 178.852c-2.36 1.531-4.643 1.655-7.403 1.898-2.626.277-5.155.785-7.742 1.313C466.227 184.337 453.661 183.2 443 176c-4.604-4.236-8.913-9.018-11-15 .313-2.375.313-2.375 1-4 1.615 2.422 2.67 4.491 3.813 7.125 1.563 3.254 1.563 3.254 4.687 5 2.774-.139 4.148-.684 6.5-2.125q1.995-1.011 4-2l-1.059-1.574c-4.822-7.391-4.822-7.391-4.941-11.426 2-2 2-2 4.025-2.24l2.517.013h2.85l3.085.032 3.152.008c3.332.011 6.664.037 9.996.062q3.382.016 6.766.027 8.305.034 16.609.098c-.223-3.17-.483-6.334-.75-9.5l-.187-2.687c-.539-6.103-2.006-10.537-5.063-15.813l-1.014-2.155c-1.29-2.413-2.476-2.83-4.986-3.845l-2.297-1.035c-10.595-4.437-20.378-5.149-31.328-.961-6.917 3.54-11.623 8.235-14.187 15.621-.9 3.094-1.675 6.192-2.188 9.375h-2c.435-9.392 3.36-16.21 10-23 14.005-10.468 32.728-10.933 46.313.375"/><path fill="#294FE6" d="M65 116v2l-2.125.516C50.721 121.539 50.721 121.539 42 130c-1.491 4.474-1.743 8.32.188 12.688C44.98 146.25 47.69 148.564 52 150v-2h2v-2l5-1-10-6c.245-3.591.537-5.493 3-8.187 5.752-3.476 11.249-5.15 18-4.813l1-1c10.045-.659 19.687 1.21 27.813 7.375 1.697 2.323 1.517 3.802 1.187 6.625-1.574 1.8-1.574 1.8-3.687 3.313l-2.075 1.55c-2.602 1.322-4.357 1.354-7.238 1.137l1 3c-.437 2.188-.437 2.188-1 4 4.015 1.338 5.93.092 9.746-1.406 2.51-.661 3.832-.432 6.254.406q-2.123.974-4.25 1.938l-2.39 1.09c-4.58 1.888-8.394 2.068-13.36 1.972l-.312 2.813c-.707 3.276-.97 4.342-3.688 6.187-3.164 1.166-4.561 1.16-7.75 0-2.25-2-2.25-2-3.062-5.687L68 156l-2.875.188C56.461 156.135 48.493 152.633 42 147c-3.281-3.768-4.757-7.898-4.434-12.957 1.083-5.102 3.628-8.664 7.746-11.809C51.563 118.31 57.47 115.544 65 116m-13 18c.318 2.946.559 4.559 2.688 6.688 4.758 2.7 8.86 3.572 14.312 3.312l2-6 7-1c2.875 4.75 2.875 4.75 4 7 6.257-.54 11.363-1.363 16-6 .223-2.48.223-2.48-1-5-11.819-8.801-34.01-8.999-45 1"/><path fill="#121315" d="M634 81h61v16l-43 1v24c2.944 1.472 5.963 1.238 9.195 1.316l2.144.063q3.393.097 6.786.183l4.598.131q5.639.16 11.277.307v3l-36-1c-1.093-3.278-1.13-5.714-1.133-9.164l-.004-3.648.012-3.813-.012-3.836.004-3.64.004-3.355C649 96 649 96 650 95a57 57 0 0 1 4.06-.114h2.61l2.834.016 2.888.005c3.057.005 6.114.018 9.17.03q3.102.009 6.202.014 7.617.017 15.236.049V84l-4.91.016q-8.997.026-17.996.039-3.9.008-7.796.02c-3.731.013-7.462.018-11.193.023l-3.532.015h-3.275l-2.887.007C639 84 639 84 636 83v96h14l-1-2a254 254 0 0 1-.098-8.945l.005-2.682c.005-2.833.018-5.665.03-8.498q.009-2.877.014-5.754c.01-4.707.03-9.414.049-14.121h35v-10l3 1v11l-27 1v1h-8v40h-18z"/><path fill="#223DBA" d="M109.531 29.242c3.76 4.5 6.676 9.888 7.031 15.82-1.212 8.486-4.456 13.737-11.101 19.157C96.07 71.015 82.728 75.622 71 75l1 2a103 103 0 0 0 7.55 1.402l2.332.374q3.713.59 7.43 1.162 4.84.752 9.676 1.527l2.36.378c6.31 1.04 12.489 2.439 18.652 4.157l.921-2.373c3.502-8.527 10.534-15.332 18.954-18.877 7.996-3.09 15.848-4.117 24.375-4.062l2.784.014c11.077.19 20.654 2.09 29.966 8.298l2.625 1.688C203.797 74.75 207.391 79.782 210 85a1115 1115 0 0 0 17.707-3.023l3.07-.548q3.063-.547 6.124-1.108c4.755-.846 9.245-1.568 14.099-1.321l-1 2h-10v2c-3.477.68-6.957 1.342-10.437 2l-2.952.578C213.93 87.953 213.93 87.953 209 87c-2.129-1.941-2.129-1.941-3.562-4.562-6.61-10.72-15.105-15.104-27.154-18.034-4.367-.772-8.737-.69-13.159-.654l-2.816-.023c-8.198.022-16.266.766-23.621 4.648-.78.4-1.56.8-2.364 1.21-5.336 3.247-8.523 6.789-11.637 12.165l-1.087 1.824A537 537 0 0 0 121 88c-7.668-.732-15.177-2.044-22.75-3.437q-3.585-.657-7.172-1.31l-3.533-.643c-4.654-.8-9.326-1.449-14.007-2.067C71 80 71 80 69 78c.375-2.625.375-2.625 1-5l3.043-.48c12.512-2.088 28.766-4.852 36.617-15.844 2.959-5.381 4.224-9.588 3.34-15.676-3.013-9.358-10.465-14.342-18.895-18.676-18.292-7.8-44.47-6.638-62.98-.074C23.306 25.494 16.725 29.845 12 37c-1.241 3.62-2.182 7.264-3 11H8c.033-7.853 1.79-13.073 7-19 21.823-21.386 72.276-20.595 94.531.242"/><path fill="#161618" d="M372 81h20l3 7.875.95 2.476C398 96.778 398 96.778 398 99h-2l-6-15h-16q-3.646 9.463-7.281 18.93a2841 2841 0 0 1-4.813 12.453c-4.823 12.44-9.207 25.017-13.511 37.644-2.978 8.714-5.974 17.422-9.395 25.973h15l.688-4.125c3.348-16.91 3.348-16.91 7.312-20.875a246 246 0 0 1 8.848-.098l2.686.005c2.843.005 5.686.018 8.529.03q2.884.008 5.767.014 7.085.017 14.17.049.955 2.128 1.907 4.258l1.073 2.395c1.4 3.22 2.595 6.474 3.77 9.785l1.297 3.62C411 177 411 177 411 179h15a45655 45655 0 0 0-8.875-23.875l-1.314-3.534c-5.316-14.288-10.64-28.57-16.219-42.757l-1.072-2.744-.904-2.286C397 102 397 102 397 100h2c7.588 18.548 14.636 37.271 21.554 56.077a2181 2181 0 0 0 3.829 10.31l1.013 2.717q.885 2.374 1.777 4.745C429 178.774 429 178.774 429 181h-20l-8-24h-38l-8 24h-19c1.865-7.091 3.938-13.993 6.45-20.879l1-2.772q1.612-4.459 3.238-8.911l1.118-3.084C355.624 123.808 363.762 102.388 372 81"/><path fill="#181819" d="M740 110v2c-.895-.095-1.79-.19-2.71-.29-11.586-1.061-21.42-.426-31.29 6.29-5 4.82-7.22 10.413-9 17l-1.14 3.195c-1.064 4.709-.66 8.405.14 13.118l.423 2.541c1.516 8.16 4.25 14.8 10.89 20.083 12.004 7.5 25.966 6.948 39.25 4.063l2.767-.578c2.225-.466 4.448-.943 6.67-1.422l-1-9-1.914.621c-9.695 2.92-22.46 5.924-32.086 1.379-5.014-3.527-9.273-6.95-11-13v-6h49l-1-17h2c1 4 1 4 1 19h-49c3.233 8.872 3.233 8.872 10.25 14.25 11.327 3.09 22.616.868 33.75-2.25 1.757 4.504 2.193 8.176 2 13l-2.937.875c-3.17.767-3.17.767-4.063 3.125-13.191 3.01-28.173 3.847-40.613-2.29-9.041-5.682-14.392-13.23-17.137-23.523-.973-12.404-.565-25.187 7.75-35.187 10.72-11.424 24.18-14.234 39-10"/><path fill="#1A1A1B" d="M888 78h18v103h-18l-1-4-1.574 1.059c-7.087 4.623-7.087 4.623-11.426 4.941l-1.953.152c-8.419.368-15.389-1.388-21.922-6.84-7.265-7.02-9.943-15.248-10.242-25.218-.026-3.7.03-7.396.117-11.094l2-1 .104 1.86c.484 15.947.484 15.947 6.896 30.14l2.125 2.875c6.466 4.779 13.908 7.01 21.875 6.125 5.874-1.256 10.585-2.733 15-7v2h2v4h14V80h-14v32c-3.806.951-4.87 1.028-8.437.125l-2.368-.578L877 111c-1.665-.34-3.331-.677-5-1l1-2q2.657.212 5.313.438c.986.08 1.972.162 2.988.246C884 109 884 109 887 110z"/><path fill="#203CB7" d="m148.625 140.313 2.023.607c2.989.965 5.116 1.849 7.375 4.06C159 147 159 147 158 150c-2.18 1.465-2.18 1.465-4.875 2.938-5.487 3-8.246 6.046-10.125 12.062-.707 6.883-1.125 14.198 2.52 20.316 3.696 4.204 9.54 8.427 15.203 8.922 7.155.16 13.317.076 19.277-4.238 4.812-4.967 7.985-10.219 8.375-17.187-.186-6.198-1.756-12.21-6.246-16.672A65 65 0 0 0 176 152l-3-1.875-2-1.125c1.42-3.43 2.87-5.018 6-7 2.329-.788 4.687-1.49 7.063-2.125l3.722-1.008L191 138l3-1c4.223.756 8.352 1.904 12.494 3.013 2.033.54 4.07 1.054 6.11 1.567 7.063 1.837 13.27 4.02 19.391 8.135 4.811 3.083 10.441 3.604 16.005 4.285v2c-7.493.666-14.606-1.602-20.745-5.939-4.97-3.148-10.403-4.436-16.03-5.946-2.03-.55-4.045-1.14-6.063-1.73-7.649-2.137-12.923-2.935-20.162.615a536 536 0 0 1-8.031 2.254c-2.16.564-2.16.564-2.969 2.746l2.688 1.25c6.8 3.593 10.247 7.76 13.312 14.75 1.963 8.173.995 14.647-3 22-4.09 5.573-9.323 9.2-16 11-7.523 1.068-14.5.04-21-4-5.393-4.842-9.58-9.682-10.3-17.086-.036-10.01 1.883-15.698 8.484-23.215 2.876-2.69 4.86-3.699 8.816-3.699-4.827-5.544-11.8-8.128-19-9-4.853.261-9.4 1.807-13.979 3.346-3.38 1.093-6.828 1.913-10.271 2.779-3.819.992-7.299 1.944-10.75 3.875 1.477-3.724 1.477-3.724 3.769-4.933l2.153-.614 2.44-.72L114 143l2.717-.81a551 551 0 0 1 8.533-2.44l2.93-.852 2.836-.789 2.54-.72c5.17-.823 10.182 1.353 15.069 2.923"/><path fill="#213EB7" d="M316.375 30.16c4.644 5.259 6.35 10.38 5.996 17.395-1.119 7.371-5.216 11.964-10.84 16.629-6.692 4.802-14.082 7.138-21.969 9.191l-2.08.546c-3.447.832-6.118 1.404-9.482.079v-1l1.753-.364C295.66 69.366 295.66 69.366 310 62l3-2.062c4.564-4.422 6.12-9.095 6.25-15.313-.082-5.57-1.826-8.957-5.437-13.187C304.546 23.407 293.064 19.728 281 18l-1 2v-3c-18.571.247-34.998.66-51.645 9.73C226 28 226 28 223 29v2h-2a175 175 0 0 0-2 4l-1.125 2.188c-1.64 5.27-1.636 10.537.438 15.687 1.42 2.63 2.523 4.167 4.687 6.125v2h2v2l2.633.848c3.147 1.077 6.173 2.31 9.242 3.59C244.418 70.385 252.038 71.743 260 73l.375 2.438L261 78l2 1c-4.316.762-7.744 1.16-12 0l4-4-3.227-.629c-12.377-2.563-25.473-5.836-33.507-16.406C214.483 52.093 212.975 46.892 214 40c2.325-8.215 8.818-13.546 15.95-17.73 8.075-4.024 16.166-5.924 25.05-7.27l2.574-.434c19.7-2.709 44.07 1.569 58.801 15.594"/><path fill="#213DB4" d="M277 75h2c.25 2.227.474 4.457.688 6.688l.386 3.761c-.083 4-.72 5.387-3.074 8.551-2.154 1.207-2.154 1.207-4.719 2.035l-2.969.973a996 996 0 0 1-20.842 5.99C233.244 107.21 219 112.18 209 125l10 5 2.188-2.25c10.694-10.457 22.376-13.125 36.935-13.05 10.866.25 20.438 2.067 28.877 9.3 2.994 3.224 5.826 6.592 6.152 11.113-.559 5.724-1.739 10.002-6.152 13.887-6.39 3.867-12.674 7.189-20.25 7.063L263 156l.25 2.25c-.25 2.75-.25 2.75-1.937 5-2.635 1.994-4.001 2.75-7.313 2.75-2.75-1.562-2.75-1.562-5-4-.812-3.25-.812-3.25-1-6l2-1 2 7h7l1.438-3.437C262 155 262 155 263 154c1.809-.274 3.623-.519 5.438-.75 7.385-1.188 13.53-3.513 19.125-8.562 2.309-4.318 3.18-8.144 1.808-12.84-2.617-5.88-6.38-8.563-12.316-11.114-15.428-4.776-31.846-4.703-46.516 2.47-4.184 2.386-6.18 4.548-8.539 8.796-2.634 1.167-3.79 1.07-6.543.145l-2.644-1.333-2.668-1.292C208 128 208 128 207.05 126.066c-.087-3.533 1.876-5.383 4.012-8.043 3.23-3.374 6.904-5.708 10.937-8.023l1.828-1.082c8.727-4.762 18.7-7.255 28.23-9.875l3.798-1.052q3.793-1.042 7.596-2.049l3.56-.977 3.202-.856c3.123-1.243 4.712-2.478 6.786-5.109.483-3.504.483-3.504.25-7.25l-.11-3.828z"/><path fill="#2A51E9" d="M178 154c2.963.099 3.96.96 6.063 3.063 4.054 6.146 6.254 12.537 4.937 19.937-1.958 5.275-4.426 10.53-9 14h-2l-.375-2.875c-.342-3.212-.342-3.212-2.625-5.125l4-6c-1.985.267-1.985.267-4 1l-1 3c-2.863 2.274-4.793 2.974-8.437 3.438-4.306-.53-6.29-1.611-9.563-4.438-2.386-3.464-3.011-5.345-2.937-9.562 1.214-4.454 3.015-7.046 6.75-9.75 5.107-1.606 9.421-.867 14.187 1.312h2v-2l2-2-2-2zm-21 11c-2.328 3.215-2.397 6.108-2 10 1.261 2.774 2.31 4.483 4.75 6.313 3.271.999 5.847 1.045 9.25.687 3.699-2.055 4.8-3.52 6.438-7.437.602-3.813.48-5.276-1.438-8.563-2.26-2.738-3.862-3.48-7.375-3.875-4.1-.327-6.437.073-9.625 2.875"/><path fill="#2950E8" d="M277 120v2h2l.438 1.813c.45 1.749.99 3.474 1.562 5.187h-2l1 1.625c1.377 3.27 1.774 4.858 1 8.375-3.362 3.481-6.995 5.734-11.824 6.375-2.423 0-4.77-.104-7.176-.375l-2-6c-2.917-.167-2.917-.167-6 0-2.36 2.36-2.491 3.779-3 7-6.325.55-11.437-.925-17-4-2.192-2.506-2.96-3.711-3.062-7 1.759-3.312 3.79-5.28 7.062-7 4.62-1.295 9.27-2.203 14-3l-2-5c7.626-6.312 18.542-2.749 27 0m-44 14c.318 2.946.559 4.559 2.688 6.688 4.758 2.7 8.86 3.572 14.312 3.312l-2-1v-2h2l1.25-2c1.75-2 1.75-2 4.75-2.5 3 .5 3 .5 4.813 2.313C262 141 262 141 263 144c5.983-.266 10.366-.829 15-5 .962-2.628.962-2.628 1-5-12.09-10.668-33.527-9.364-46 0"/><path fill="#19191B" d="M549 108v16l-6.5.75c-6.81.965-12.492 2.242-17.5 7.25-.285 1.992-.285 1.992-.211 4.294l.01 2.691.04 2.913.017 2.99c.017 3.162.049 6.325.082 9.487q.042 4.732.07 9.466.019 2.947.054 5.896l.02 2.71.025 2.377C525 177 525 177 524 181h-18v-70h17l1 6 2.5-2.312c6.488-5.402 14.236-6.688 22.5-6.688m-25 12-3 1v-8h-13v66h14l-.051-4.311c-.05-5.29-.042-10.578-.016-15.867q.005-3.431-.04-6.862c-.039-3.293-.02-6.581.01-9.874l-.075-3.088c.14-6.955.14-6.955 3.13-9.976 4.235-2.895 8.36-4.806 13.417-5.834l3.023-.645L544 122l3-1v-10c-9.833-.624-16.25 1.654-23 9"/><path fill="#1E1F20" d="M636 81h59v16l-43 1v24c2.944 1.472 5.963 1.238 9.195 1.316l2.144.063q3.393.097 6.786.183l4.598.131q5.639.16 11.277.307v3l-36-1c-1.093-3.278-1.13-5.714-1.133-9.164l-.004-3.648.012-3.813-.012-3.836.004-3.64.004-3.355C649 96 649 96 650 95a57 57 0 0 1 4.06-.114h2.61l2.834.016 2.888.005c3.057.005 6.114.018 9.17.03q3.102.009 6.202.014 7.617.017 15.236.049V84l-4.91.016q-8.997.026-17.996.039-3.9.008-7.796.02c-3.731.013-7.462.018-11.193.023l-3.532.015h-3.275l-2.887.007C639 84 639 84 636 83z"/><path fill="#171719" d="M487.313 116.375c4.163 3.874 7.722 7.835 8.687 13.625l1 4v18h-48c2.894 9.317 2.894 9.317 9.863 14.055 6.363 2.815 13.461 1.899 20.137.945 3.002-.085 5.997-.063 9 0-6.392 4.262-16.407 4.92-24 4-6.575-1.632-11.67-4.544-15.25-10.437-1.48-3.012-2.56-5.232-2.75-8.563 2-2 2-2 4.025-2.24l2.517.013h2.85l3.085.032 3.152.008c3.332.011 6.664.037 9.996.062q3.382.016 6.766.027 8.305.034 16.609.098c-.223-3.17-.483-6.334-.75-9.5l-.187-2.687c-.539-6.103-2.006-10.537-5.063-15.813l-1.014-2.155c-1.29-2.413-2.476-2.83-4.986-3.845l-2.297-1.035c-10.595-4.437-20.378-5.149-31.328-.961-6.917 3.54-11.623 8.235-14.187 15.621-.9 3.094-1.675 6.192-2.188 9.375h-2c.435-9.392 3.36-16.21 10-23 14.005-10.468 32.728-10.933 46.313.375"/><path fill="#213DB6" d="M9 48c2.516 1.258 2.616 2.14 3.688 4.688 4.309 8.84 12.993 13.04 21.93 16.253 4.767 1.5 9.41 2.462 14.382 3.059q2.006.477 4 1l-.176 3.324q-.07 2.182-.136 4.364l-.127 2.185c-.089 3.865.153 5.694 2.334 8.998 4.207 2.884 8.142 3.595 13.105 4.504 7.932 1.63 15.627 3.568 23.313 6.125l2.544.826C105.19 107.178 116.4 113.67 123 124v4l-13 5c-3-3-3-3-5.062-5.937-3.423-4.142-7.936-5.497-12.938-7.063l-2.05-.652c-7.75-2.062-15.98-2-23.95-2.348v-2c14.436-.467 28.045-.266 40 9 1.922 1.917 3.416 3.782 5 6l9-4c-8.26-14.453-22.105-18.724-37.423-22.943l-3.807-1.037-1.953-.533q-4.907-1.34-9.827-2.633l-3.685-.987-3.313-.871c-3.694-1.23-6.915-2.597-9.328-5.73-.961-3.28-.603-6.127-.289-9.516l.336-3.828L51 75l-3.078-.48c-13.317-2.203-26.758-5.54-35.586-16.606C9.874 54.214 9 52.59 9 48"/><path fill="#213EB9" d="M302 36c3.215 2.826 5.567 5.385 6.688 9.563-1.457 5.163-4.658 7.776-9 10.562-4.178 1.904-8.568 3.041-13 4.188l-2.14.557c-3.36.814-5.205 1.244-8.548.13-.125-3.375-.125-3.375 0-7l2-2 1 7c14.204-2.9 14.204-2.9 26-11 .31-3.426.31-3.426-1-7-10.777-10.028-27.86-10.577-41.648-10.312-10.512.45-22.724 2.45-30.352 10.312-1.648 2.958-1.648 2.958-1 6 5.008 6.785 13.014 9.454 21 11 3.334.169 3.334.169 6 0l.078-1.793c.375-5.22.932-8.459 4.922-12.207h2v2l-1.457 1.238c-2.217 2.532-2.052 4.636-2.23 7.95l-.2 3.292L261 61c-7.478 2.493-16.444-1.537-23.32-4.582-4.806-2.543-7.845-5.19-9.805-10.418.128-3.07.566-5.03 2.457-7.488C246.75 23.632 283.992 23.312 302 36"/><path fill="#203CBA" d="M96 36c3.025 2.597 4.714 5.236 6.125 9-.142 3.406-1.007 5.08-3.348 7.55C90.556 59.256 80.383 61.557 70 61c-2.08-2.08-1.318-6.516-1.426-9.336-.337-2.779-.337-2.779-2.476-4.473C64.04 46.023 62.32 45.414 60 45v-2c3.674.256 5.755.832 8.813 2.938C71.82 50.148 71.892 53.929 72 59c14.97-2.416 14.97-2.416 27-11-.074-3.489-.45-5.361-2.742-8.027-11.23-9.811-27.676-9.807-41.75-9.173C44.077 31.63 33.572 34.428 26 42c-.588 3.783-.38 5.45 1.813 8.625C34.843 55.865 43.477 57.595 52 59v1c-7.707.519-13.253-.179-20-4l-3.312-1.875C25.554 51.648 23.733 49.61 22 46c.503-4.108 1.703-5.703 4.625-8.625C44.362 23.921 77.601 23.451 96 36"/><path fill="#151516" d="M586 108c10.449 1.097 19.449 2.852 26.875 10.75 8.154 10.173 8.991 21.687 8.125 34.25-1.584 10.25-5.91 17.932-13.887 24.527-8.97 6.251-20.973 6.718-31.43 4.895-9.06-2.353-15.654-6.768-21.117-14.434-4.426-7.994-4.908-17.047-4.566-25.988h2l.297 3.148c.848 8.184 2.002 15.392 5.703 22.852l1.02 2.203c1.306 2.394 2.483 2.717 4.98 3.797l3.063 1.938c9.652 5.419 18.281 5.578 28.937 3.062 6.207-1.816 10.843-3.865 15-9l2.125-2.562c5.85-10.724 6.296-23.394 3.555-35.13-2.254-7.654-5.984-12.844-12.68-17.308-2.935-1.374-5.853-2.248-9-3l-2.57-.617q-3.207-.734-6.43-1.383z"/><path fill="#171819" d="M594.313 122.125c3.877 2.705 6.93 5.661 8.5 10.25L603 134h-2c-3-4.385-3-4.385-3-7-7.377-2.869-12.918-4.089-20.75-2-4.261 2.622-5.63 5.335-7.25 10-.534 3.355-.562 6.608-.5 10-.015.85-.03 1.702-.047 2.578.045 7.259 1.866 12.74 7.047 17.922 5.184 2.222 9.945 2.247 15.5 1.5 5.037-2.298 7.016-4.883 9-10 1.225-4.597 1.114-9.094 1.063-13.812l-.014-2.39q-.02-2.898-.049-5.798h2c2.607 8.515 2.029 19.04-2 27-3.208 5.25-6.496 7.207-12.312 8.652-6.232.806-11.621-.44-16.625-4.277-6.209-6.106-6.637-13.657-7.063-21.965 0-7.256 1.343-12.688 6-18.41 6.288-5.816 14.25-6.613 22.313-3.875"/><path fill="#161618" d="m876.875 120.688 3.617-.051c3.813.395 6.154 1.581 9.508 3.363q.222 8.193.33 16.388.044 2.787.123 5.572c.073 2.674.106 5.346.133 8.02.03.828.062 1.655.094 2.507.003 5.684.003 5.684-2.056 8.183-1.66 1.394-1.66 1.394-4.624 3.33l-2-1 2.456-1.456c2.952-2.952 3.157-4.695 3.263-8.79l-.012-2.457.046-2.539c.043-2.67.052-5.338.06-8.008q.034-2.72.076-5.437c.063-4.438.095-8.875.111-13.313-6.829-1.435-13.812-2.082-20.5.188-4.378 3.173-6.864 6.692-8.5 11.812a98 98 0 0 0-.25 8l-.023 2.117c.015 4.083.479 7.214 2.273 10.883l.938 2.125c1.575 2.78 3.033 4.526 6.113 5.57l2.261.43 2.391.469c4.143.734 4.143.734 8.297 1.406-3.9 2.6-5.987 2.103-10.496 1.54-5.706-1.23-9.35-4.81-12.504-9.54-2.09-5.022-2.366-9.523-2.375-14.875l-.074-2.316c-.032-6.28 1.495-11.686 5.897-16.34 5.11-4.426 8.693-5.76 15.427-5.781"/><path fill="#151517" d="M830 125c5.733 8.6 4 16.514 4 27l-41 1v1h-7c.71 5.322.71 5.322 3.75 9.313L792 164l2.75 1.563c7.033 3.11 13.818 2.418 21.25 1.5l2.637-.303q3.183-.37 6.363-.76v2c-22.63 5.54-22.63 5.54-32.562-.25-4.563-3.342-7.918-7.222-9.438-12.75l1-5h48c-.73-11.35-.73-11.35-2.695-22.207L829 126z"/><path fill="#171819" d="M380 95c1.905.287 1.905.287 4 1 1.201 2.691 2.104 5.175 2.945 7.98l.776 2.442c.817 2.584 1.61 5.174 2.404 7.766a3035 3035 0 0 0 1.629 5.181q1.837 5.835 3.629 11.685c.551 1.739 1.164 3.458 1.784 5.174C398 139 398 139 398 144h-32c-1.353-4.058.03-6.707 1.422-10.562l.79-2.263A1346 1346 0 0 1 370.75 124q1.656-4.685 3.297-9.375l.797-2.273A195 195 0 0 0 380 95m1 5a6940 6940 0 0 0-5.072 15.051q-.86 2.559-1.726 5.116-1.244 3.685-2.48 7.372l-.78 2.292-.727 2.183c-.21.626-.422 1.253-.64 1.898-.73 2.648-1.123 5.379-1.575 8.088h28c-1.31-5.899-2.668-11.426-4.602-17.098-.24-.72-.482-1.44-.73-2.18-.76-2.263-1.527-4.524-2.293-6.784l-1.562-4.647A5116 5116 0 0 0 383 100z"/><path fill="#1E3CC1" d="M74.813 124.75c8.757.098 16.994 2.31 24 7.625 1.697 2.323 1.517 3.803 1.187 6.625-2.847 3.193-6.527 5.497-10.562 6.875A133 133 0 0 1 80 146l-2-7h-5l-3 7c-8.538-.032-14.055-2.073-21-7 .245-3.591.537-5.493 3-8.187 5.752-3.476 11.249-5.15 18-4.813 1-1 1-1 4.813-1.25M52 134c.318 2.946.559 4.559 2.688 6.688 4.758 2.7 8.86 3.572 14.312 3.312l2-6 7-1c2.875 4.75 2.875 4.75 4 7 6.257-.54 11.363-1.363 16-6 .223-2.48.223-2.48-1-5-11.819-8.801-34.01-8.999-45 1"/><path fill="#171818" d="m769 129 2 1-.5 3.063c-1.58 12.873-1.854 25.238 5.945 36.003 5.091 6.332 12.818 10.329 20.856 11.356 8.888.201 17.082-1.497 25.699-3.422 1.998-.347 3.997-.685 6-1l-1-9h-2v-2l3-1c2.248 4.497 2.167 8.079 2 13-12.792 6.396-28.258 8.192-42 4-10.247-4.105-14.901-9.233-19.766-19.062-2.265-5.392-2.416-10.457-2.422-16.25l-.037-2.186c-.013-5.146.81-9.553 2.225-14.502"/><path fill="#252526" d="m684 127 3 1v11l-27 1v1h-8v39c-3-3-3-3-3.36-4.88l.02-2.132v-2.427l.047-2.604.013-2.678c.017-2.822.054-5.644.092-8.466q.024-2.87.042-5.74c.03-4.692.089-9.382.146-14.073h35z"/><path fill="#243FB6" d="m262 126 2.941.02c6.45.272 11.434 2.387 16.059 6.98 1.125 3 1.125 3 0 6-3.41 3.457-6.968 5.73-11.824 6.375-2.423 0-4.77-.104-7.176-.375l-2-6c-2.917-.167-2.917-.167-6 0-2.36 2.36-2.491 3.779-3 7-6.325.55-11.437-.925-17-4-2.192-2.506-2.96-3.711-3.062-7 2.362-4.447 5.905-6.55 10.437-8.312 6.728-1.372 13.798-.886 20.625-.688m-29 8c.318 2.946.559 4.559 2.688 6.688 4.758 2.7 8.86 3.572 14.312 3.312l-2-1v-2h2l1.25-2c1.75-2 1.75-2 4.75-2.5 3 .5 3 .5 4.813 2.313C262 141 262 141 263 144c5.983-.266 10.366-.829 15-5 .962-2.628.962-2.628 1-5-12.09-10.668-33.527-9.364-46 0"/><path fill="#202022" d="M797 120c6.57-.548 11.567.066 17 4 3.362 3.621 4.195 6.421 4.598 11.21l.238 2.721L819 140q-7.449.037-14.899.055-2.535.008-5.072.02c-2.425.013-4.85.018-7.275.023l-2.304.015c-1.817 0-3.634-.051-5.45-.113l-1-1c.121-6.92 2.266-10.983 7-16l3-2 3 1-1.496 1.207-1.942 1.606-1.933 1.582c-1.884 1.613-1.884 1.613-2.629 4.605l-3 7h32c-2.724-10.613-2.724-10.613-8-14-3.033-.786-3.033-.786-6.25-1.187-1.078-.16-2.155-.318-3.266-.481L797 122z"/><path fill="#121214" d="M736.375 121.125c4.072 2.908 7.012 6.035 8.625 10.875v8h-35c0-7.895.15-10.422 5-16 5.907-5.462 14.072-5.31 21.375-2.875m-21.687 6.063c-2.312 3.422-2.312 3.422-2.688 10.812h31c-.375-6.628-.375-6.628-3-12-8.173-6.13-17.738-5.978-25.312 1.188"/><path fill="#1A1A1D" d="M472.309 120.918c4.507 2.555 7.016 5.056 8.691 10.082.484 2.679.766 5.28 1 8-2.225-2.542-3.378-4.902-4.437-8.062-1.212-3.413-2.26-5.183-5.563-6.938-5.224-1.741-9.573-1.428-14.75.125-4.377 2.525-6.482 5.444-8 10.25L449 136c2.845 1.423 5.362 1.22 8.54 1.316l3.944.127 4.141.12 4.164.13q5.106.16 10.211.307v2h-34c.95-7.594 1.683-12.585 7.758-17.39 5.771-3.319 12.296-4.179 18.55-1.692"/><path fill="#29292B" d="M636 81h59l-2 1v2q-11.453.037-22.906.055-3.9.008-7.796.02c-3.731.013-7.462.018-11.193.023l-3.532.015h-3.275l-2.887.007C639 84 639 84 636 83z"/><path fill="#161617" d="M433 157c1.552 2.329 2.664 4.363 3.813 6.875 2.953 5.95 7.35 9.998 13.187 13.125 13.355 4.128 23.611 2.923 37 0q2.499-.507 5-1v-7l2 1c1.462 6.075 1.462 6.075.063 8.875-2.52 1.374-4.861 1.626-7.696 1.875-2.626.277-5.155.785-7.742 1.313C466.227 184.337 453.661 183.2 443 176c-4.604-4.236-8.913-9.018-11-15 .313-2.375.313-2.375 1-4"/><path fill="#19191A" d="M824.438 116.438c2.817 2.599 4.635 4.74 5.562 8.562l-3-1-.937-2.437c-1.293-3.118-2.085-3.226-5.063-4.563l-3.437-2c-10.359-5.074-20.798-4.487-31.563-1-6.622 2.994-11.113 8.466-14 15-.672-1.746-.672-1.746-1-4 1.11-2.035 1.11-2.035 2.75-4.062l1.61-2.036c12.421-14.403 34.894-14.132 49.077-2.465"/><path fill="#213DB9" d="M65 116v2l-2.125.516C50.721 121.539 50.721 121.539 42 130c-1.491 4.474-1.743 8.32.188 12.688 5 6.38 12.164 9.295 20.046 10.714l1.891.223L67 154l1 2c-9.77.637-18.6-2.58-26-9-3.281-3.768-4.757-7.898-4.434-12.957 1.083-5.102 3.628-8.664 7.746-11.809C51.563 118.31 57.47 115.544 65 116"/><path fill="#151617" d="M888 78h18v2h-16v32c-3.806.951-4.87 1.028-8.437.125l-2.368-.578L877 111c-1.665-.34-3.331-.677-5-1l1-2q2.657.212 5.313.438c.986.08 1.972.162 2.988.246C884 109 884 109 887 110z"/><path fill="#181819" d="M693 82h2v15l-43 1-1 12h-1q-.29-3.468-.562-6.937l-.317-3.903L649 96c1-1 1-1 2.753-1.12l2.308.006h2.608l2.835.016 2.888.005c3.057.005 6.114.018 9.17.03q3.102.009 6.202.014 7.617.017 15.236.049z"/><path fill="#1F3ABB" d="M169 160c3.054 1.613 5.238 3.03 7.375 5.75 1.29 4.643 1.29 8.676-.562 13.063-3.058 3.69-5.481 5.017-10.25 5.625-4.306-.53-6.29-1.611-9.563-4.438-2.386-3.464-3.011-5.345-2.937-9.562 1.214-4.454 3.015-7.046 6.75-9.75 3.254-1.023 5.792-1.04 9.187-.688m-12 5c-2.328 3.215-2.397 6.108-2 10 1.261 2.774 2.31 4.483 4.75 6.313 3.271.999 5.847 1.045 9.25.687 3.699-2.055 4.8-3.52 6.438-7.437.602-3.813.48-5.276-1.438-8.563-2.26-2.738-3.862-3.48-7.375-3.875-4.1-.327-6.437.073-9.625 2.875"/><path fill="#2444BC" d="m70 73 6 1v1h-5l1 2c2.518.572 4.967 1.02 7.516 1.402l2.323.374q3.705.59 7.411 1.162a2673 2673 0 0 1 12.001 1.905c6.66 1.09 13.202 2.513 19.749 4.157v2c-7.668-.732-15.177-2.044-22.75-3.437q-3.585-.657-7.172-1.31l-3.533-.643c-4.654-.8-9.326-1.449-14.007-2.067C71 80 71 80 69 78c.375-2.625.375-2.625 1-5"/><path fill="#131315" d="m684 127 3 1v11l-27 1v1l-10 1 1-5h33z"/><path fill="#171719" d="M582 108v3l-2.309.445c-9.507 2.066-16.635 4.904-22.129 13.243-2.865 5.214-3.914 10.44-4.562 16.312l-3-1c2.48-11.441 5.763-20.486 15.879-27.258 5.103-2.783 10.415-3.853 16.121-4.742"/><path fill="#1D1D1F" d="M732 121v1l-2.45.297c-8.258.87-8.258.87-14.55 5.703l-3 10h29v1l-31 1c0-7.894.15-10.424 5-16 5.215-4.831 10.335-4.234 17-3"/><path fill="#0A0A0C" d="M758 133h2c1.04 3.416 1.134 6.564 1.125 10.125l.008 3.195C761 149 761 149 760 151h-48v-1h47z"/><path fill="#2341B9" d="M72 126c10.105-.524 18.29-.215 26.625 5.938C100 134 100 134 100.563 136.5 100 139 100 139 98 141.25c-3.833 2.236-6.597 2.451-11 2.75 3-2 3-2 6.125-3.312 3.11-1.398 3.11-1.398 3.75-4.375L97 134c-5.44-3.535-10.047-4.875-16.437-5.75l-2.506-.379A589 589 0 0 0 72 127z"/><path fill="#141415" d="m793 121 3 1-1.496 1.207-1.942 1.606-1.933 1.582c-1.884 1.613-1.884 1.613-2.629 4.605l-3 8h25v1c-4.312.029-8.625.047-12.937.063l-3.733.025-3.545.01-3.285.016C784 140 784 140 783 139c.121-6.92 2.266-10.983 7-16z"/><path fill="#161617" d="M871 110v1l-2.344.445c-9.727 2.095-15.543 5.127-21.156 13.43A195 195 0 0 0 845 129l-2-2c4.974-8.478 10.639-14.393 20.102-17.61 2.808-.577 5.164-.142 7.898.61"/><path fill="#131317" d="m506 111 16 1v7h-1v-6h-13v19l-2 1z"/><path fill="#1F43CD" d="M265 44v2l-1.457 1.238c-2.217 2.532-2.052 4.636-2.23 7.95l-.2 3.292L261 61c-3.475 1.158-5.137.773-8.687.063l-3.012-.59L247 60v-1l11-1 .25-4.187C258.705 49.629 259.891 44 265 44"/><path fill="#141516" d="m445 113 2 2-1.61 1.25c-7.907 6.465-10.643 12.822-12.39 22.75h-2c.44-9.507 3.553-16.07 10-23 2.313-1.875 2.313-1.875 4-3"/><path fill="#171719" d="M741 111c6.518 1.59 11.034 4.823 14.555 10.512C759 128.178 759 128.178 759 132h-2c-.22-.568-.438-1.137-.664-1.723-2.867-6.981-6.05-12.39-12.711-16.214L741 113z"/><path fill="#1D3DC4" d="m251 138 3 1-2 2c-.648 2.57-.648 2.57-1 5-6.314.549-11.393-1.057-17-4l-1-2c2.804.495 5.366 1.127 8.063 2.063 3.058 1.14 3.058 1.14 6.937.937v-2h2z"/><path fill="#161617" d="M797 120c6.543-.545 11.605.039 17 4 2.563 3 2.563 3 4 6-.25 2.375-.25 2.375-1 4v-3h-2l-1.812-2.875c-2.41-3.442-3.201-4.15-7.188-5.125-2.994-.428-5.986-.75-9-1z"/><path fill="#1F2022" d="m636 81 38 1v1q-7.395.252-14.789.482-2.516.08-5.031.166-3.615.122-7.23.23l-2.274.083c-3.198.092-5.613.06-8.676-.961z"/><path fill="#2644C4" d="m250 72 10 1 .375 2.438L261 78l2 1c-4.316.762-7.744 1.16-12 0l4-4-5-2z"/><path fill="#2641B2" d="m19 26 2 1-1.46 1.426c-.633.622-1.264 1.245-1.915 1.887l-1.898 1.863c-3.103 3.278-4.241 6.219-5.352 10.511-.26.994-.52 1.988-.79 3.012C9.394 46.46 9.2 47.218 9 48H8c.033-7.788 1.843-13.094 7-19a74 74 0 0 1 4-3"/><path fill="#293DAE" d="m68 156 .875 1.875c1.062 2.258 1.062 2.258 3.125 4.125 3 .417 3 .417 6 0l2-3h2c-.31 2.993-.86 3.88-3.187 5.875-2.813 1.125-2.813 1.125-6 .5C70 164 70 164 68 161c-.125-2.687-.125-2.687 0-5"/><path fill="#1C37BC" d="M215 41h1l.262 2.414c.907 6.841 1.85 10.699 6.738 15.586v2h2l1 3c-4.769-1.766-7.522-5.62-10.14-9.836-1.093-2.75-1.055-4.966-.985-7.914l.055-2.984z"/><path fill="#171719" d="M830 125c4.264 6.396 4.27 12.54 4 20h-2l-.402-2.887-.535-3.8-.528-3.762a102 102 0 0 0-1.164-6.446L829 126z"/><path fill="#1D1D1F" d="M825 166v2c-2.415.532-4.831 1.05-7.25 1.563l-2.066.458c-3.502.731-6.287 1.301-9.684-.021 3.222-2.148 5.159-2.537 8.938-3.125l3.152-.508C821 166 821 166 825 166"/><path fill="#1F41CA" d="M97 83c8.19.41 16.04.905 24 3v2c-8.137-.714-16.017-2.328-24-4z"/><path fill="#161617" d="M816 111c5.962 2.92 10.13 6.565 14 12v2l-3-1-.937-2.437c-1.299-3.131-2.017-3.294-5.063-4.563a373 373 0 0 1-6-4z"/><path fill="#171718" d="M724 108c5.789-.207 10.43.408 16 2v2l-17-1z"/><path fill="#1A1B1C" d="M888 140h1c.343 3.726.615 7.455.875 11.188l.297 3.197c.486 7.699.486 7.699-1.503 10.469-1.661 1.384-1.661 1.384-4.669 3.146l-2-1 2.45-1.266c3.995-4.283 3.332-8.828 3.362-14.484l.077-3.27q.088-3.99.111-7.98"/><path fill="#1C1C1D" d="m467.563 179.813 3.378-.043c2.944.221 4.58.696 7.059 2.23-7.168 1.912-14.772 1.257-22 0v-1c3.899-.91 7.562-1.164 11.563-1.187"/><path fill="#161617" d="M448 158c3 1 3 1 4.813 3.375 2.462 2.954 4.69 4.115 8.187 5.625v2l3 1c-5.456-.4-9.099-2.276-13-6-1.937-3.312-1.937-3.312-3-6"/><path fill="#141516" d="M389 82h3q1.506 3.685 3 7.375l.867 2.117C398 96.773 398 96.773 398 99h-2l-1.277-3.21-1.66-4.165-.842-2.117c-1.506-3.8-1.506-3.8-3.221-7.508"/><path fill="#181819" d="M430 140h2l1 16h-2c-1.067-3.462-1.102-6.64-1.062-10.25l.027-3.266z"/><path fill="#1D3EBF" d="m296 69-1 3c-2.8.984-2.8.984-6.312 1.75l-3.489.797c-2.894.41-4.5.44-7.199-.547v-1q3.937-1.004 7.875-2l2.262-.578C293.773 69 293.773 69 296 69"/><path fill="#2440B9" d="M57 44h2c-1 3-1 3-3 4-.692 2.81-.692 2.81-1.125 6.063l-.508 3.347L54 60l-2-1c-.273-5.377-.39-8.567 3-13z"/><path fill="#1D39C4" d="M48 29v2q-2.869 1.048-5.75 2.063l-3.234 1.16c-2.939.757-4.24.849-7.016-.223q2.87-1.261 5.75-2.5l3.234-1.406C44 29 44 29 48 29"/><path fill="#171719" d="m684 127 3 1v10l-3-1z"/><path fill="#2942B8" d="M265 44v2l-1.437 1.188c-2.31 2.678-2.239 5.373-2.563 8.812l-3 1c.256-1.607.53-3.21.813-4.812l.457-2.708c.953-3.238 2.138-5.48 5.73-5.48"/><path fill="#1B1B1B" d="M550 142h2c.223 1.748.428 3.499.625 5.25l.352 2.953c.024 2.931-.446 4.342-1.977 6.797-1.323-4.96-1.089-9.911-1-15"/><path fill="#232324" d="m689.75 80.875 2.984.055L695 81l-2 1v2l-13-1c3.988-1.994 5.471-2.227 9.75-2.125"/><path fill="#1F3CC5" d="M266 117c5.99-.315 9.636.318 15 3l-1 2-14-4z"/><path fill="#202021" d="M510 111h13l1 10h-3l1-9h-12z"/><path fill="#1D39BE" d="M305 40c2.118 1.677 2.922 2.64 3.5 5.313-.734 3.943-2.786 5.77-5.5 8.687l-1-3 1.5-1c2.382-3.176 1.692-6.102 1.5-10"/><path fill="#2B48BC" d="m55.23 28.121 2.432.147 2.526.17 2.56.158q3.126.196 6.252.404v1l-21 1v-2c2.875-.958 4.29-1.067 7.23-.879"/><path fill="#1C3BAF" d="m111 55 2 1c-7.114 8.815-7.114 8.815-12 10v-2c1.426-1.148 1.426-1.148 3.313-2.375 2.823-1.926 4.841-3.693 6.687-6.625"/><path fill="#2141AC" d="M265 43c7.272.485 7.272.485 10.563 2.813C277 48 277 48 276.75 50.25L276 52l-.437-2.312c-2.172-3.736-4.641-4.059-8.665-5.208L265 44z"/><path fill="#222224" d="M461 168h11l1 3h-9v-2z"/><path fill="#1B1C1D" d="M758 133h2c1.001 3.31 1.104 6.3 1.063 9.75l-.028 2.984L761 148h-1v-8h-2z"/><path fill="#233BAE" d="M101 24c7.954 4.352 7.954 4.352 10 7v2c-3.957-1.674-6.845-4.131-10-7z"/><path fill="#2F51F4" d="M258 156h3c.125 2.375.125 2.375 0 5-2 2-2 2-4.625 2.125L254 163l3-2c.73-2.563.73-2.563 1-5"/><path fill="#1A3ABF" d="M272 94v2c-4.504 1.757-8.176 2.193-13 2 4.155-2.237 8.239-4 13-4"/><path fill="#2740B7" d="M38 57c4.69.566 9.345 1.185 14 2v1q-2.656.039-5.312.063l-2.989.035C41 60 41 60 38 59z"/><path fill="#222326" d="M843 128c1.938.375 1.938.375 4 1l1 2c-3.228 2.152-4.284 2.2-8 2l2-1c.652-2.025.652-2.025 1-4"/><path fill="#1B3AC4" d="M80 100q2.127.429 4.25.875l2.39.492c2.328.625 4.25 1.481 6.36 2.633-4.507.177-7.966.136-12-2z"/><path fill="#1939CB" d="M154 63v1l-2.082.402-2.73.535-2.708.528c-2.594.512-2.594.512-5.48 1.535v-3c4.791-1.63 8.056-2.206 13-1"/><path fill="#191A1B" d="M358 167c1.136 3.41.867 4.003-.437 7.188l-.872 2.167L356 178l-2-2 2-7h2z"/><path fill="#1C1C1E" d="m828 164 2 1c.414 2.066.414 2.066.625 4.563l.227 2.503L831 174c-1.5-1.25-1.5-1.25-3-3v-4h-2v-2z"/><path fill="#202122" d="M569 140v7l-3 1v-7c2-1 2-1 3-1"/><path fill="#1E3CC2" d="M80 159h2c-.312 1.875-.312 1.875-1 4-3 2-3 2-6.187 1.625L72 164c2.332-1.206 4.496-2.165 7-3z"/><path fill="#191A1C" d="M743 132h2v8h-4v-2h2z"/><path fill="#2242B1" d="m97 138 1 3c-6.964 3.348-6.964 3.348-11 2l1.934-.84 2.504-1.097 2.496-1.09c2.01-.804 2.01-.804 3.066-1.973"/><path fill="#141416" d="M470 121c3.937 1.312 6.227 2.92 9 6-4.412 0-5.784-2.07-9-5z"/><path fill="#202020" d="M724 108h7v2c-2.763.597-5.16 1-8 1z"/><path fill="#222324" d="M738 169c-3.228 2.152-4.284 2.2-8 2l-1-2c3.378-.845 5.675-1.108 9 0"/><path fill="#171719" d="M873 167c2.875-.125 2.875-.125 6 0l2 2-7 1z"/><path fill="#2439C7" d="m70 138 3 1-3 7c-1.125-1.75-1.125-1.75-2-4 .875-2.25.875-2.25 2-4"/><path fill="#111211" d="M393 127c2.762 2.762 2.579 5.207 3 9h-2c-2.125-6.75-2.125-6.75-1-9"/><path fill="#2446DE" d="M54 60v2c-3.375.125-3.375.125-7 0l-2-2c6.75-1.125 6.75-1.125 9 0"/><path d="M816 153h16v1h-16z"/><path fill="#070707" d="M745 153h15v1h-15z"/><path fill="#040404" d="M886 141h1v15h-1z"/><path fill="#131313" d="M507 109h15v1h-15z"/><path fill="#04042C" d="M474 153h13v1h-13z"/><path fill="#1F1F32" d="M450 153h7v1h-6l-1 2z"/><path fill="#060606" d="M516 182h8v1h-8z"/><path fill="#121227" d="M488 153h8v1h-8z"/><path d="M898 182h7v1h-7z"/><path fill="#090909" d="M644 182h7v1h-7z"/><path d="M347 182h7v1h-7zM737 153h7v1h-7z"/><path fill="#0D0D0D" d="M713 153h6v1l-6 1z"/><path fill="#070707" d="M898 76h7v1h-7z"/><path fill="#282828" d="M889 182h6v1h-6z"/><path d="M422 182h6v1h-6zM799 153h6v1h-6z"/><path fill="#00001C" d="M730 153h6v1h-6z"/><path fill="#0A0A0A" d="M835 145h1v6h-1z"/><path fill="#080808" d="m713 133 1 3 2 1h-3z"/><path d="M799 123h6v1h-6zM672 122h6v1h-6z"/><path fill="#0A0A0A" d="M696 82h1v6h-1z"/><path d="M635 182h5v1h-5z"/><path fill="#0C0C0C" d="M411 182h5v1h-5z"/><path fill="#191919" d="M759 171h1v5h-1z"/><path fill="#0C0C0C" d="M886 158h1v5h-1z"/><path d="M810 153h5v1h-5zM498 146h1v5h-1zM601 145h1v5h-1zM765 142h1v5h-1z"/><path fill="#0C0C0C" d="M498 138h1v5h-1z"/><path d="M859 137h1v5h-1zM886 135h1v5h-1zM886 93h1v5h-1zM696 90h1v5h-1z"/><path fill="#0C0C0C" d="M889 76h5v1h-5z"/><path d="m459 183 4 1ZM495 170l1 4ZM794 153l4 1Z"/><path fill="#151515" d="m469 153 4 1Z"/><path d="m570 150 1 4Z"/><path fill="#101010" d="m859 148 1 4Z"/><path d="m835 140 1 4ZM525 136l1 4ZM681 122l4 1Z"/><path fill="#232323" d="m524 112 1 4Z"/><path fill="#111" d="m874 183 3 1Z"/><path fill="#0C0C0C" d="m810 183 3 1Z"/><path d="m737 183 3 1ZM722 183l3 1Z"/><path fill="#31314E" d="m369 140 3 1Z"/><path fill="#282828" d="m815 135 1 2-2-1z"/><path d="m728 123 3 1Z"/><path fill="#151515" d="m463 123 3 1Z"/><path d="m862 183 2 1ZM473 183l2 1ZM509 182l2 1ZM881 181l2 1ZM827 179l2 1ZM754 179l2 1Z"/><path fill="#202020" d="m590 166 2 1Z"/><path d="m573 161 2 1ZM397 157l2 1ZM727 153l2 1ZM721 153l2 1ZM152 148l2 1Z"/><path fill="#2A2A2A" d="m83 142 2 1Z"/><path d="m682 140 2 1Z"/><path fill="#191919" d="m740 136 2 1Z"/><path fill="#2A2A55" d="m255 134 2 1Z"/><path d="m528 129 2 1ZM884 125l2 1ZM591 125l2 1Z"/><path fill="#000020" d="m542 125 2 1Z"/><path d="m880 124 2 1ZM587 124l2 1ZM665 122l2 1ZM743 110l2 1Z"/><path fill="#404080" d="m73 76 2 1Z"/></svg>